<?xml version="1.0" standalone="no"?><!DOCTYPE svg PUBLIC "-//W3C//DTD SVG 1.1//EN" "http://www.w3.org/Graphics/SVG/1.1/DTD/svg11.dtd"><svg width="100%" height="100%" viewBox="0 0 23 15" version="1.1" xmlns="http://www.w3.org/2000/svg" xmlns:xlink="http://www.w3.org/1999/xlink" xml:space="preserve" style="fill-rule:evenodd;clip-rule:evenodd;stroke-linecap:round;stroke-linejoin:round;stroke-miterlimit:1.41421;"><g id="Layer1"><path d="M19.2135,0.496075c0,3.47513 -2.29719,6.41373 -5.45588,7.3801" style="fill:none;stroke-width:0.5px;stroke:#000;"/><path d="M9.33713,7.90627c-3.21052,-0.934166 -5.55671,-3.89819 -5.55671,-7.41019" style="fill:none;stroke-width:0.5px;stroke:#000;"/><path d="M18.1417,0.496075c0,3.66982 -2.97497,6.64479 -6.64479,6.64479c-3.66982,0 -6.64479,-2.97497 -6.64479,-6.64479" style="fill:none;stroke-width:0.5px;stroke:#000;"/><path d="M18.1417,0.496075l3.85826,0" style="fill:none;stroke-width:0.5px;stroke:#000;"/><path d="M22,0.496075c0,1.77572 -1.4395,3.21522 -3.21522,3.21522c-0.0666646,0 -0.132855,-0.00202888 -0.198514,-0.00602825" style="fill:none;stroke-width:0.5px;stroke:#000;"/><path d="M18.5704,3.92564l2.47448,1.39429" style="fill:none;stroke-width:0.5px;stroke:#000;"/><path d="M21.0449,5.31994c-0.887859,1.53782 -2.85426,2.06471 -4.39207,1.17685c-0.0577332,-0.0333323 -0.114042,-0.0681847 -0.168904,-0.104477" style="fill:none;stroke-width:0.5px;stroke:#000;"/><path d="M16.427,6.49782l1.49941,2.47448" style="fill:none;stroke-width:0.5px;stroke:#000;"/><path d="M17.9264,8.9723c-1.48008,0.854526 -3.35717,0.398532 -4.28759,-1.00795" style="fill:none;stroke-width:0.5px;stroke:#000;"/><path d="M4.85049,0.496075l-3.85826,0" style="fill:none;stroke-width:0.5px;stroke:#000;"/><path d="M0.992229,0.496075c0,1.77572 1.4395,3.21522 3.21522,3.21522c0.0666646,0 0.132855,-0.00202888 0.198514,-0.00602825" style="fill:none;stroke-width:0.5px;stroke:#000;"/><path d="M4.42346,3.7113l-2.47615,1.60864" style="fill:none;stroke-width:0.5px;stroke:#000;"/><path d="M1.94732,5.31994c0.887859,1.53782 2.85426,2.06471 4.39207,1.17685c0.0577332,-0.0333323 0.114042,-0.0681847 0.168904,-0.104477" style="fill:none;stroke-width:0.5px;stroke:#000;"/><path d="M6.50829,6.49782l-1.44242,2.47448" style="fill:none;stroke-width:0.5px;stroke:#000;"/><path d="M5.06587,8.9723c1.48008,0.854526 3.35717,0.398532 4.28759,-1.00795" style="fill:none;stroke-width:0.5px;stroke:#000;"/><path d="M7.91921,12.2852l2.506,-7.50218" style="fill:none;stroke-width:0.5px;stroke:#000;"/><path d="M12.8271,5.32402l2.09938,6.96119" style="fill:none;stroke-width:0.5px;stroke:#000;"/><path d="M13.6255,7.87618c-0.51882,3.04265 -2.66527,3.88552 -5.70631,4.40904" style="fill:none;stroke-width:0.5px;stroke:#000;"/><path d="M9.42511,7.87618c0.51882,3.04265 2.46036,3.88552 5.5014,4.40904" style="fill:none;stroke-width:0.5px;stroke:#000;"/><path d="M9.99651,11.8565c0.0856634,0.754483 0.586138,1.49951 1.50142,2.14348" style="fill:none;stroke-width:0.5px;stroke:#000;"/><path d="M12.9881,11.873c-0.0910366,0.748848 -0.590866,1.48772 -1.49949,2.127" style="fill:none;stroke-width:0.5px;stroke:#000;"/><path d="M10.4252,4.79524c0.238024,-0.728433 0.871354,-1.23916 1.66571,-1.23916c0.974153,0 1.76386,0.789707 1.76386,1.76386l-0.9719,7.10543e-15" style="fill:none;stroke-width:0.5px;stroke:#000;"/></g></svg>